<svg width="166" height="166" viewBox="0 0 166 166" fill="none" xmlns="http://www.w3.org/2000/svg">
  <defs>
    <linearGradient id="grad" x1="0" y1="0" x2="166" y2="166" gradientUnits="userSpaceOnUse">
      <stop offset="0%" stop-color="#059669"/>
      <stop offset="100%" stop-color="#0f766e"/>
    </linearGradient>
  </defs>
  <rect width="166" height="166" rx="37" fill="url(#grad)"/>
  <path d="M83 28c.69 0 1.35.27 1.84.75l.01.01.1.09c.07.06.17.16.3.28.27.24.66.58 1.16.98 1.01.8 2.46 1.87 4.27 2.94 3.62 2.14 8.78 4.37 15.22 5.32 6.44.95 11.5 1 11.5 1 1.1 0 2 .9 2 2v34c0 25.5-17 44.3-44.4 55.5-.56.23-1.2.23-1.76 0C46 119.63 29 100.83 29 75.33v-34c0-1.1.9-2 2-2 0 0 5.06-.05 11.5-1 6.44-.95 11.6-3.18 15.22-5.32 1.81-1.07 3.26-2.14 4.27-2.94.5-.4.89-.74 1.16-.98.13-.12.23-.22.3-.28l.1-.09.01-.01c.49-.48 1.15-.75 1.84-.75h.6ZM41 47.28v28.05c0 20.6 13.46 36.2 37.8 46.6 24.34-10.4 37.8-26 37.8-46.6V47.28c-3.06-.38-7.68-1.14-12.7-2.5-6.5-1.75-11.84-4.67-15.7-7.2-1.6-1.05-2.93-2.07-3.96-2.89-.52-.41-1-.8-1.44-1.14-.44.34-.92.73-1.44 1.14-1.03.82-2.36 1.84-3.96 2.89-3.86 2.53-9.2 5.45-15.7 7.2-5.02 1.36-9.64 2.12-12.7 2.5ZM83 58c-5.52 0-10 4.48-10 10 0 3.78 2.1 7.07 5.19 8.76v7.74c0 2.65 2.15 4.8 4.81 4.8s4.81-2.15 4.81-4.8v-7.74C90.9 75.07 93 71.78 93 68c0-5.52-4.48-10-10-10Zm-3.38 10a3.38 3.38 0 1 1 6.76 0 3.38 3.38 0 0 1-6.76 0Z" fill="white" fill-rule="evenodd" clip-rule="evenodd"/>
</svg>
